<?xml version="1.0" encoding="UTF-8"?>
<svg width="43px" height="47px" viewBox="0 0 43 47" version="1.1" xmlns="http://www.w3.org/2000/svg" xmlns:xlink="http://www.w3.org/1999/xlink">
    <title>Group</title>
    <g id="Page-1" stroke="none" stroke-width="1" fill="none" fill-rule="evenodd">
        <g id="Artboard" transform="translate(-90.000000, -89.000000)" fill-rule="nonzero">
            <g id="Group" transform="translate(90.000000, 89.045040)">
                <path d="M39.4625,3.22502 C37.4025,1.15502 34.7025,0.065019 32.0125,0.0150186 L10.6825,0.0150186 C7.9925,0.075019 5.2925,1.16502 3.2325,3.22502 C-1.0775,7.52502 -1.0775,14.46506 3.2325,18.70506 L5.8725,21.34506 L21.3525,36.82506 L36.8325,21.34506 L39.4725,18.70506 C43.7725,14.40506 43.7725,7.46502 39.4725,3.22502" id="Path" fill="#78CFD2"></path>
                <path d="M36.8225,21.34496 L39.4625,18.70496 C43.7625,14.40496 43.7625,7.465 39.4625,3.225 C35.1625,-1.075 28.2225,-1.075 23.9825,3.225 L21.3425,5.865 L18.7025,3.225 C14.4125,-1.075 7.4725,-1.075 3.2325,3.225 C-1.0775,7.525 -1.0775,14.46496 3.2325,18.70496 L5.8725,21.34496 L21.3525,36.82496 L36.8325,21.34496 L36.8225,21.34496 Z" id="Path" fill="#0095A4"></path>
                <path d="M3.23251,18.70496 C1.33251,16.81496 0.302507,14.46496 0.0725073,11.99496 L3.80251,41.58496 C3.80251,44.50496 6.15251,46.91496 9.13251,46.91496 C10.5625,46.91496 11.8225,46.34496 12.8025,45.42496 L21.4025,36.82496 L5.92251,21.34496 L3.23251,18.70496 Z" id="Path" fill="#78CFD2"></path>
                <path d="M39.4625,18.70496 L36.8225,21.34496 L21.3425,36.82496 L29.9425,45.42496 C30.9125,46.34496 32.1825,46.91496 33.6125,46.91496 C36.5325,46.91496 38.9425,44.56496 38.9425,41.58496 L42.6725,10.91496 C42.6725,13.78496 41.5825,16.59496 39.4625,18.71496" id="Path" fill="#00B0B9"></path>
            </g>
        </g>
    </g>
</svg>