<svg width="190" height="48" viewBox="0 0 190 48" fill="none" xmlns="http://www.w3.org/2000/svg">
<g clip-path="url(#clip0_646_852)">
<path d="M39.46 3.27006C37.4 1.20006 34.7 0.110059 32.01 0.0600586H10.68C7.99 0.120059 5.29 1.21006 3.23 3.27006C-1.08 7.57006 -1.08 14.5101 3.23 18.7501L5.87 21.3901L21.35 36.8701L36.83 21.3901L39.47 18.7501C43.77 14.4501 43.77 7.51006 39.47 3.27006" fill="#78CFD2"/>
<path d="M36.82 21.39L39.46 18.75C43.76 14.45 43.76 7.51004 39.46 3.27004C35.16 -1.02996 28.22 -1.02996 23.98 3.27004L21.34 5.91004L18.7 3.27004C14.41 -1.02996 7.47 -1.02996 3.23 3.27004C-1.08 7.57004 -1.08 14.51 3.23 18.75L5.87 21.39L21.35 36.87L36.83 21.39H36.82Z" fill="#0095A4"/>
<path d="M3.23001 18.75C1.33001 16.86 0.300007 14.51 0.0700073 12.04L3.80001 41.63C3.80001 44.55 6.15001 46.96 9.13001 46.96C10.56 46.96 11.82 46.39 12.8 45.47L21.4 36.87L5.92001 21.39L3.23001 18.75Z" fill="#78CFD2"/>
<path d="M39.46 18.75L36.82 21.39L21.34 36.87L29.94 45.47C30.91 46.39 32.18 46.96 33.61 46.96C36.53 46.96 38.94 44.61 38.94 41.63L42.67 10.96C42.67 13.83 41.58 16.64 39.46 18.76" fill="#00B0B9"/>
<path d="M189.22 0.400024H184.98V22.47H189.22V0.400024Z" fill="white"/>
<path d="M74.09 22.48L73.06 2.99C72.95 1.27 71.74 0.119995 70.08 0.119995C68.59 0.119995 67.56 0.919995 67.1 2.36L62.57 16.52L57.93 2.42C57.47 1.1 56.27 0.129995 54.78 0.129995C53.23 0.189995 52.03 1.45 52.03 3L51 22.49H54.84L55.64 7.93L60.4 22.49H64.59L69.35 7.64L69.98 22.49H74.11L74.09 22.48Z" fill="white"/>
<path d="M84.81 3.9C88.48 3.9 90.89 7.28 90.89 11.47C90.89 16.11 88.48 18.98 84.81 18.98C81.14 18.98 78.73 16.11 78.73 11.47C78.73 6.83 81.14 3.9 84.81 3.9ZM84.81 22.82C90.89 22.82 95.3 18.35 95.3 11.41C95.3 4.47 90.89 0 84.81 0C78.73 0 74.37 4.47 74.37 11.41C74.37 18.35 78.73 22.82 84.81 22.82Z" fill="white"/>
<path d="M135.04 11.4701C135.04 6.83006 137.39 3.90006 141.12 3.90006C144.85 3.90006 147.2 7.28006 147.2 11.4701C147.2 16.1101 144.79 18.9801 141.12 18.9801C137.45 18.9801 135.04 16.1101 135.04 11.4701ZM151.55 11.4701C151.55 4.53006 147.14 0.0600586 141.06 0.0600586C137.73 0.0600586 134.93 1.38006 133.09 3.73006V0.400059H110.39V15.5401L101.79 2.01006C101.04 0.920059 100.13 0.180059 98.69 0.180059C97.08 0.240059 96.11 1.61006 96.11 3.10006V22.5401H99.95V6.48006L110.16 22.4801H114.23V4.24006H121.11V22.4701H125.35V4.24006H132.63C131.31 6.13006 130.57 8.60006 130.57 11.4601C130.57 18.4001 134.93 22.8701 141.01 22.8701C147.2 22.8101 151.56 18.3401 151.56 11.4601" fill="white"/>
<path d="M156.25 10.7201V5.22006C156.25 4.70006 156.71 4.19006 157.22 4.19006H159.34C162.32 4.19006 163.64 4.99006 163.64 7.52006C163.64 10.0501 161.58 10.7301 159.51 10.7301H156.24L156.25 10.7201ZM181.71 10.8901C180.22 9.86006 178.44 9.40006 176.78 8.83006C175.35 8.31006 172.77 7.63006 172.77 5.96006C172.77 4.29006 174.83 3.84006 176.15 3.84006C178.04 3.84006 180.68 4.30006 182.23 4.93006H182.8V1.15006C180.45 0.460059 178.33 0.0600586 175.92 0.0600586C174.09 0.120059 172.25 0.580059 170.82 1.72006C169.62 2.81006 168.7 4.36006 168.7 6.13006C168.7 8.54006 170.02 10.6001 172.31 11.7501C173.92 12.5001 175.64 12.9501 177.36 13.4701C178.74 13.8701 180.17 14.6201 180.23 16.1601C180.29 18.5101 177.19 19.0301 175.47 19.0301L167.33 18.9701L163.72 13.8701C164.29 13.7001 164.75 13.4701 165.21 13.1801C167.27 11.8601 168.08 9.68006 168.13 7.33006C168.13 4.86006 167.04 2.28006 164.75 1.20006C162.97 0.340059 161.25 0.450059 159.36 0.400059H156.49C154.08 0.400059 152.13 2.35006 152.13 4.70006V22.5301H156.37V14.5001H159.12L163.08 20.1801L164.8 22.7601L175.41 22.8201C177.76 22.8201 180.28 22.3001 182.18 20.7601C183.5 19.6701 184.36 17.9501 184.36 16.1201C184.25 14.1101 183.44 12.1601 181.72 10.9001" fill="white"/>
<path d="M63.37 41.57C62.17 43 59.99 43.06 58.21 43.06H55.23V29.76C55.23 29.24 55.69 28.79 56.26 28.79H58.61C60.56 28.79 62.68 28.96 63.77 30.91C64.57 32.29 64.74 34.29 64.74 35.96C64.8 37.79 64.74 39.97 63.36 41.58M58.49 24.9H55.34C52.99 24.9 51.04 26.85 51.04 29.14V46.97H58.78C61.93 46.97 64.86 46.22 66.92 43.64C68.58 41.4 69.21 38.59 69.21 35.73C69.21 33.38 68.75 30.8 67.38 28.74C65.37 25.7 62.33 24.9 58.49 24.9Z" fill="white"/>
<path d="M82.69 38.07L85.67 29.81L88.65 38.07H82.69ZM110.38 39.96L101.78 26.43C101.03 25.34 100.12 24.6 98.68 24.6C97.07 24.66 96.1 26.03 96.1 27.52V46.21L88.65 26.6C88.19 25.45 87.04 24.65 85.73 24.65C84.42 24.65 83.21 25.4 82.81 26.6L75.18 47.01H79.42L81.37 41.85H90.03L91.92 47.01H100V30.96L110.21 46.96H114.28V24.89H110.44V39.97H110.38V39.96Z" fill="white"/>
<path d="M127.76 41.57C126.56 43 124.38 43.06 122.6 43.06H119.62V29.76C119.62 29.24 120.08 28.79 120.65 28.79H123C124.95 28.79 127.07 28.96 128.16 30.91C128.96 32.29 129.13 34.29 129.13 35.96C129.19 37.79 129.13 39.97 127.75 41.58M122.88 24.9H119.73C117.38 24.9 115.43 26.85 115.43 29.14V46.97H123.17C126.32 46.97 129.25 46.22 131.31 43.64C132.97 41.4 133.6 38.59 133.6 35.73C133.6 33.38 133.14 30.8 131.77 28.74C129.76 25.7 126.72 24.9 122.88 24.9Z" fill="white"/>
<path d="M163.65 38.07L166.63 29.81L169.61 38.07H163.65ZM141.98 35.2H138.71V29.7C138.71 29.18 139.17 28.67 139.68 28.67H141.8C144.78 28.67 146.1 29.47 146.1 32C146.1 34.53 144.04 35.21 141.97 35.21M166.68 24.6C165.42 24.6 164.21 25.35 163.76 26.55L156.25 46.62V24.83H151.95V46.62L146.04 38.31C146.61 38.14 147.07 37.91 147.53 37.62C149.59 36.3 150.4 34.12 150.45 31.77C150.45 29.3 149.36 26.72 147.07 25.64C145.29 24.78 143.57 24.89 141.68 24.84H138.81C136.4 24.84 134.45 26.79 134.45 29.14V46.97H138.69V39H141.44L146.94 46.97H160.24L162.19 41.81H170.85L172.74 46.97H177.27L169.53 26.56C169.13 25.41 167.98 24.61 166.66 24.61" fill="white"/>
<path d="M72.2 24.65C70.59 24.65 69.33 25.91 69.33 27.52C69.33 29.13 70.59 30.39 72.2 30.39C73.81 30.39 75.07 29.13 75.07 27.52C75.13 25.91 73.81 24.65 72.2 24.65Z" fill="#0095A4"/>
</g>
<defs>
<clipPath id="clip0_646_852">
<rect width="189.22" height="47.02" fill="white"/>
</clipPath>
</defs>
</svg>
