<svg width="209" height="48" viewBox="0 0 209 48" fill="none" xmlns="http://www.w3.org/2000/svg">
<rect x="30.3852" width="35.0857" height="35.0857" transform="rotate(60 30.3852 0)" fill="#243760" fill-opacity="0.5"/>
<rect x="42.3105" y="5.02895" width="35.0857" height="35.0857" transform="rotate(75 42.3105 5.02895)" fill="#6C9DD9" fill-opacity="0.5"/>
<rect x="52.6288" y="12.8648" width="35.0857" height="35.0857" transform="rotate(90 52.6288 12.8648)" fill="#53C2D7" fill-opacity="0.5"/>
<path d="M71.0653 13.25C73.3035 13.25 75.2589 13.6833 76.9374 14.541C78.6163 15.399 79.9104 16.6035 80.826 18.1553L80.828 18.1582C81.7746 19.7092 82.2508 21.5018 82.2508 23.5439C82.2508 23.6533 82.2199 23.7154 82.1776 23.7578C82.124 23.8115 82.0733 23.831 82.0145 23.831H81.9999L79.5243 23.9766C79.4008 23.9753 79.3517 23.9469 79.3348 23.9316C79.3223 23.9202 79.2958 23.8882 79.2958 23.7881V23.6416C79.2958 21.4215 78.6363 19.6046 77.3026 18.2148L77.0272 17.9434C75.5125 16.4924 73.5165 15.7764 71.0653 15.7764C68.6129 15.7764 66.6155 16.4932 65.1004 17.9453C63.5851 19.3979 62.8338 21.3051 62.8338 23.6416V37.3096C62.8338 39.6461 63.5851 41.5532 65.1004 43.0059C66.6155 44.458 68.6129 45.1748 71.0653 45.1748C73.5159 45.1747 75.512 44.4751 77.0272 43.0566L77.0292 43.0547C78.5453 41.6013 79.2958 39.6775 79.2958 37.3096V37.2119C79.2958 37.1118 79.3223 37.0798 79.3348 37.0684C79.3517 37.0531 79.4008 37.0237 79.5243 37.0225L81.9999 37.1689H82.0145C82.1441 37.1689 82.1945 37.1992 82.2118 37.2148C82.2242 37.2261 82.2508 37.2578 82.2508 37.3584C82.2508 39.4338 81.7744 41.2598 80.827 42.8437L80.826 42.8447C79.9104 44.3965 78.6163 45.6009 76.9374 46.459C75.2589 47.3167 73.3035 47.7499 71.0653 47.75C68.8269 47.75 66.8708 47.3167 65.1922 46.459C63.6189 45.6244 62.368 44.4855 61.4364 43.04L61.2547 42.7461C60.3397 41.1297 59.8788 39.271 59.8788 37.1631V23.7393C59.8788 21.6623 60.3395 19.8345 61.2557 18.25C62.2043 16.6655 63.5159 15.447 65.1932 14.5898L65.1962 14.5879C66.874 13.6988 68.8283 13.25 71.0653 13.25ZM82.9696 13.6406H105.502C105.625 13.6407 105.672 13.6717 105.689 13.6894C105.707 13.7075 105.738 13.7548 105.738 13.8789V15.9775C105.738 16.1017 105.707 16.149 105.689 16.167C105.672 16.1847 105.625 16.2158 105.502 16.2158H95.9637C95.8602 16.2158 95.7363 16.242 95.6405 16.3379C95.5448 16.4339 95.5184 16.5577 95.5184 16.6611V47.0723C95.5184 47.1965 95.4875 47.2438 95.4696 47.2617C95.4519 47.2795 95.4055 47.3105 95.2821 47.3105H92.7997C92.6765 47.3105 92.6299 47.2795 92.6122 47.2617C92.5943 47.2436 92.5633 47.1962 92.5633 47.0723V16.6611C92.5633 16.5577 92.5379 16.4339 92.4422 16.3379C92.3465 16.2418 92.2226 16.2158 92.119 16.2158H82.9696C82.8463 16.2158 82.7998 16.1847 82.7821 16.167C82.7642 16.149 82.7333 16.1017 82.7333 15.9775V13.8789C82.7333 13.7548 82.7642 13.7074 82.7821 13.6894C82.7998 13.6717 82.8463 13.6407 82.9696 13.6406ZM108.292 13.6406H120.896C123.629 13.6407 125.815 14.4988 127.481 16.2012L127.483 16.2031C129.149 17.8739 129.989 20.0684 129.989 22.8115C129.989 25.0418 129.387 26.9226 128.192 28.4678C126.998 30.0122 125.38 31.0071 123.325 31.4512L123.294 31.458L123.265 31.4726C123.18 31.5158 123.074 31.5885 123.024 31.7129C122.974 31.8398 123.005 31.9584 123.056 32.0478V32.0488L130.355 47.084L130.356 47.0869C130.367 47.1077 130.379 47.1477 130.379 47.2187C130.379 47.252 130.374 47.2708 130.371 47.2793C130.37 47.283 130.368 47.2854 130.368 47.2861L130.366 47.2871C130.364 47.2891 130.335 47.3105 130.239 47.3105H127.66C127.546 47.3105 127.471 47.2885 127.422 47.2598C127.375 47.2326 127.336 47.1906 127.307 47.1211L127.303 47.1123L120.148 31.9795C120.119 31.9052 120.073 31.8325 120 31.7773C119.916 31.7143 119.82 31.6905 119.728 31.6904H111.455C111.351 31.6904 111.228 31.7164 111.132 31.8125C111.036 31.9085 111.011 32.0324 111.011 32.1357V47.0723C111.011 47.1959 110.98 47.2436 110.962 47.2617C110.944 47.2795 110.897 47.3105 110.773 47.3105H108.292C108.168 47.3105 108.121 47.2795 108.103 47.2617C108.085 47.2435 108.056 47.1956 108.056 47.0723V13.8789C108.056 13.7555 108.085 13.7077 108.103 13.6894C108.121 13.6717 108.168 13.6406 108.292 13.6406ZM111.455 16.167C111.351 16.167 111.228 16.1929 111.132 16.2891C111.036 16.385 111.011 16.5089 111.011 16.6123V28.9619C111.011 29.0653 111.036 29.1892 111.132 29.2851C111.228 29.3813 111.351 29.4072 111.455 29.4072H120.507C122.445 29.4072 124.036 28.8021 125.258 27.5771C126.479 26.352 127.083 24.755 127.083 22.8115C127.083 20.8691 126.48 19.2737 125.26 18.0488H125.261C124.04 16.7901 122.447 16.167 120.507 16.167H111.455Z" stroke="#243760" stroke-width="0.5"/>
<path d="M151.17 13C154.08 13 156.411 13.8886 158.164 15.6657C159.949 17.4429 160.842 19.7795 160.842 22.6756C160.842 25.5388 159.933 27.8425 158.114 29.5867C156.328 31.331 153.964 32.2031 151.021 32.2031H141.349C141.217 32.2031 141.15 32.2689 141.15 32.4006V47.1114C141.15 47.4405 140.985 47.6051 140.654 47.6051H138.125C137.794 47.6051 137.629 47.4405 137.629 47.1114V13.4936C137.629 13.1645 137.794 13 138.125 13H151.17ZM150.773 29.2905C152.724 29.2905 154.311 28.6982 155.535 27.5134C156.758 26.2957 157.37 24.6996 157.37 22.725C157.37 20.7174 156.758 19.1048 155.535 17.8872C154.311 16.6695 152.724 16.0606 150.773 16.0606H141.349C141.217 16.0606 141.15 16.1265 141.15 16.2581V29.0931C141.15 29.2247 141.217 29.2905 141.349 29.2905H150.773Z" fill="#243760"/>
<path d="M170.408 47.6051C170.077 47.6051 169.912 47.4405 169.912 47.1114V13.543C169.912 13.2139 170.077 13.0494 170.408 13.0494H172.937C173.268 13.0494 173.433 13.2139 173.433 13.543V47.1114C173.433 47.4405 173.268 47.6051 172.937 47.6051H170.408Z" fill="#243760"/>
<path d="M196.738 48C194.423 48 192.373 47.5392 190.587 46.6178C188.802 45.6963 187.413 44.4128 186.421 42.7673C185.429 41.0888 184.933 39.1471 184.933 36.9422V13.543C184.933 13.2139 185.098 13.0494 185.429 13.0494H187.959C188.289 13.0494 188.455 13.2139 188.455 13.543V37.0409C188.455 39.3775 189.215 41.2863 190.736 42.7673C192.257 44.2153 194.258 44.9393 196.738 44.9393C199.218 44.9393 201.219 44.2153 202.74 42.7673C204.261 41.2863 205.021 39.3775 205.021 37.0409V20.9478C205.021 20.6187 205.187 20.4542 205.517 20.4542H208.047C208.378 20.4542 208.543 20.6187 208.543 20.9478V36.9422C208.543 39.1471 208.047 41.0888 207.055 42.7673C206.096 44.4128 204.724 45.6963 202.938 46.6178C201.153 47.5392 199.086 48 196.738 48Z" fill="#243760"/>
<path d="M208.629 16.0617C208.629 16.3908 208.463 16.5554 208.133 16.5554L198.298 16.5554C197.968 16.5554 197.802 16.3908 197.802 16.0617V13.5441C197.802 13.215 197.968 13.0504 198.298 13.0504L208.133 13.0504C208.463 13.0504 208.629 13.215 208.629 13.5441V16.0617Z" fill="#243760"/>
</svg>