<svg viewBox="0 0 48 48" fill="none" xmlns="http://www.w3.org/2000/svg">
<path fill-rule="evenodd" clip-rule="evenodd" d="M0 0H48V21.7568H45.7143V2.28571H2.28571V45.7143H45.7143V27.4656H37.7639C36.1851 27.4656 35.2231 28.167 34.0828 29.3101C32.3667 31.0304 30.0838 32.2831 27.8576 32.0881C26.7107 31.9877 25.6314 31.502 24.7451 30.5779C23.8739 29.6695 23.2353 28.3879 22.8419 26.7503C22.2294 24.2004 20.9412 23.253 19.6002 23.2226C18.0767 23.1879 15.8751 24.2791 13.4556 27.2108C11.7801 29.2411 9.87461 30.2286 7.94297 30.0409C6.04555 29.8565 4.49519 28.5711 3.42685 26.8838L5.35801 25.6611C6.20499 26.9988 7.21478 27.6737 8.16404 27.7659C9.07909 27.8548 10.3069 27.4352 11.6927 25.7559C14.2723 22.6302 17.0774 20.8789 19.6522 20.9374C22.4095 21.0001 24.3113 23.0815 25.0644 26.2164C25.3935 27.5863 25.882 28.4612 26.3947 28.9957C26.8923 29.5146 27.4539 29.7583 28.0571 29.8111C29.3313 29.9227 30.9862 29.1778 32.4646 27.6958C33.7477 26.4096 35.2669 25.1798 37.7639 25.1798H45.9429C47.079 25.1798 48 26.1009 48 27.237V48H0V0Z" fill="black"/>
</svg>